<?xml version="1.0" encoding="UTF-8"?>
<svg width="36px" height="36px" viewBox="0 0 36 36" version="1.1" xmlns="http://www.w3.org/2000/svg" xmlns:xlink="http://www.w3.org/1999/xlink">
    <!-- Generator: Sketch 46 (44423) - http://www.bohemiancoding.com/sketch -->
    <title>github</title>
    <desc>Created with Sketch.</desc>
    <defs>
        <circle id="path-1" cx="18" cy="18" r="18"></circle>
    </defs>
    <g id="Symbols" stroke="none" stroke-width="1" fill="none" fill-rule="evenodd">
        <g id="footer" transform="translate(-633.000000, -82.000000)">
            <g id="social-links">
                <g transform="translate(633.000000, 82.000000)">
                    <g id="github">
                        <g id="Group">
                            <g id="Mask">
                                <mask id="mask-2" fill="white">
                                    <use xlink:href="#path-1"></use>
                                </mask>
                                <use fill="#EF2657" xlink:href="#path-1"></use>
                                <path d="M26.7651177,8.4 L26.9017997,8.4 C27.041421,8.44397789 27.108914,8.55092669 27.1542486,8.68139065 C27.6209342,10.0237903 27.6974716,11.3683379 27.1693978,12.7132247 C27.0728499,12.9593426 27.1082357,13.1466726 27.3061927,13.3362636 C27.8384496,13.8463619 28.201465,14.4672528 28.4346948,15.1654724 C28.6106063,15.6921896 28.6759513,16.2372215 28.7183465,16.7879061 C28.7997451,17.8460887 28.885666,18.9039321 28.8675774,19.9666369 C28.8516368,20.907922 28.7064758,21.8234308 28.3294418,22.6938312 C27.7255089,24.0882356 26.691859,25.0843517 25.4010118,25.8346891 C24.2794061,26.4866698 23.0554868,26.8351013 21.7778669,27.0139522 C21.6970335,27.0252576 21.6189134,27.055669 21.5680393,27.0694616 C21.7410114,27.4557661 21.9266456,27.8112069 22.0616317,28.1848494 C22.3009664,28.8474571 22.3582846,29.5444331 22.3608848,30.2429919 C22.3677811,32.1381111 22.3646156,34.0332302 22.3647287,35.9283493 C22.3647287,36.3549009 22.3271948,36.390739 21.8941992,36.390739 L15.4162223,36.390739 C14.9555285,36.390739 14.9057848,36.3425781 14.9055587,35.8847106 C14.9049935,34.8734453 14.9054457,33.8620669 14.9055587,32.8506885 L14.9055587,32.6814471 C14.6896262,32.7025882 14.4903125,32.716946 14.2924685,32.7423831 C13.5257383,32.8409659 12.7600256,32.8781606 11.9945391,32.7287036 C10.651235,32.4665321 9.60322724,31.7624336 8.86046445,30.61573 C8.21458867,29.6187094 7.58521873,28.6111748 6.9451087,27.6105366 C6.86698859,27.4884386 6.77835449,27.369393 6.67649311,27.2669664 C6.3522551,26.9414848 6.01953807,26.6245953 5.68998654,26.3043141 L5.68998654,26.2769551 C5.85165333,26.2212197 6.01038072,26.1296462 6.17555217,26.1160797 C6.89536507,26.0568396 7.56792152,26.2108187 8.16529726,26.6329612 C8.61163326,26.9483811 8.94570693,27.367245 9.23998571,27.8210426 C9.56535425,28.3225488 9.90994192,28.8067577 10.3704096,29.198828 C11.131148,29.8465126 12.000757,30.1927961 13.0064827,30.1869173 C13.5024493,30.1839779 13.98191,30.0856212 14.4604663,29.9700803 C14.8518582,29.8755674 14.9021671,29.8268413 14.952476,29.4312664 C14.9548501,29.4131778 14.9551893,29.3949761 14.9573373,29.3767745 C15.0463106,28.6527786 15.2146475,27.9541068 15.6106746,27.3276762 C15.6631316,27.2446948 15.7051875,27.1551563 15.7570792,27.0592867 C15.718867,27.0505816 15.697726,27.0457203 15.676698,27.040859 C14.9640075,26.8758006 14.2413683,26.7443191 13.5407745,26.5379961 C12.4420056,26.2145495 11.4463417,25.6847799 10.6000217,24.8960042 C9.71288933,24.0691295 9.0622653,23.09325 8.70738974,21.9280055 C8.48636976,21.2023138 8.42656435,20.4570638 8.41842449,19.7024304 C8.40531026,18.480546 8.43346063,17.263636 8.6649946,16.0575792 C8.86679545,15.006632 9.26112675,14.0573201 10.015421,13.2763452 C10.1575295,13.1291492 10.1843232,12.9386538 10.1224829,12.7404706 C10.0913931,12.6407573 10.0588336,12.54127 10.0297788,12.4409914 C9.65591026,11.1491268 9.76229379,9.87535076 10.181723,8.61570646 C10.2085167,8.53555138 10.2840366,8.47156299 10.3369457,8.4 L10.5009867,8.4 C10.5517478,8.41820165 10.6018306,8.43866436 10.653383,8.45415272 C11.2207996,8.62486381 11.7419771,8.88567869 12.2148807,9.24428502 C12.6756876,9.59384705 13.0539653,10.0251469 13.4314516,10.4574642 C13.6256778,10.6799539 13.8171908,10.9047047 14.0084776,11.1268552 C14.0300709,11.1173587 14.0438634,11.113741 14.0548297,11.1060533 C14.6974269,10.6524819 15.4269624,10.4424281 16.1973103,10.3672474 C16.7860939,10.3099292 17.3773648,10.2726215 17.9682965,10.2440189 C19.0667262,10.1906575 20.1616513,10.2219734 21.2502453,10.4003721 C21.8928425,10.5057382 22.4973406,10.7286801 23.0976558,10.9674495 C23.1873074,11.0030614 23.2429298,10.9906255 23.3120056,10.9241499 C23.8269652,10.4280703 24.3482558,9.93854778 24.8633284,9.44280731 C25.2116469,9.1076031 25.6004386,8.83401315 26.0486965,8.65256196 C26.2831698,8.55770991 26.5260092,8.48354668 26.7651177,8.4" fill="#FFFFFF" mask="url(#mask-2)"></path>
                            </g>
                        </g>
                    </g>
                </g>
            </g>
        </g>
    </g>
</svg>