<?xml version="1.0" encoding="UTF-8"?>
<svg width="36px" height="36px" viewBox="0 0 36 36" version="1.1" xmlns="http://www.w3.org/2000/svg" xmlns:xlink="http://www.w3.org/1999/xlink">
    <!-- Generator: Sketch 46 (44423) - http://www.bohemiancoding.com/sketch -->
    <title>linked-in</title>
    <desc>Created with Sketch.</desc>
    <defs></defs>
    <g id="Symbols" stroke="none" stroke-width="1" fill="none" fill-rule="evenodd">
        <g id="footer" transform="translate(-702.000000, -82.000000)">
            <g id="social-links">
                <g transform="translate(633.000000, 82.000000)">
                    <g id="linked-in" transform="translate(69.000000, 0.000000)">
                        <circle id="Oval-Copy" fill="#EF2657" cx="18" cy="18" r="18"></circle>
                        <g id="icon" transform="translate(10.800000, 9.878400)" fill="#FFFFFF">
                            <polygon id="Fill-1" points="0.00219176471 15.608628 3.65979171 15.608628 3.65979171 5.24913035 0.00219176471 5.24913035"></polygon>
                            <path d="M1.83100024,-4.87058824e-05 C0.819379059,-4.87058824e-05 -9.74117647e-05,0.803354824 -9.74117647e-05,1.79525012 C-9.74117647e-05,2.78714541 0.819379059,3.59152306 1.83100024,3.59152306 C2.84310847,3.59152306 3.66258494,2.78714541 3.66258494,1.79525012 C3.66258494,0.803354824 2.84310847,-4.87058824e-05 1.83100024,-4.87058824e-05" id="Fill-2"></path>
                            <path d="M16.4383814,9.09879459 C16.4383814,6.77235812 14.5517591,4.88622282 12.2255661,4.88622282 C10.8367179,4.88622282 9.60884259,5.558364 8.84075082,6.593364 L8.84075082,5.24908165 L5.24990965,5.24908165 L5.24990965,15.6085793 L8.84075082,15.6085793 L8.84075082,9.57611224 L8.84683906,9.57611224 C8.84464729,9.54347929 8.84075082,9.51182047 8.84075082,9.478944 C8.84075082,8.53453694 9.69164259,7.76936753 10.7393061,7.76936753 C11.7894049,7.76936753 12.6405402,8.53453694 12.6405402,9.478944 L12.6405402,15.6085793 L16.4383814,15.6085793 L16.4383814,9.669384 L16.4003908,9.669384 C16.4257179,9.48210988 16.4383814,9.29240047 16.4383814,9.09879459" id="Fill-5"></path>
                        </g>
                    </g>
                </g>
            </g>
        </g>
    </g>
</svg>