<?xml version="1.0" encoding="UTF-8"?>
<svg width="36px" height="36px" viewBox="0 0 36 36" version="1.1" xmlns="http://www.w3.org/2000/svg" xmlns:xlink="http://www.w3.org/1999/xlink">
    <!-- Generator: Sketch 46 (44423) - http://www.bohemiancoding.com/sketch -->
    <title>twitter</title>
    <desc>Created with Sketch.</desc>
    <defs></defs>
    <g id="Symbols" stroke="none" stroke-width="1" fill="none" fill-rule="evenodd">
        <g id="footer" transform="translate(-772.000000, -82.000000)">
            <g id="social-links">
                <g transform="translate(633.000000, 82.000000)">
                    <g id="twitter" transform="translate(139.000000, 0.000000)">
                        <circle id="Oval-Copy-2" fill="#EF2657" cx="18" cy="18" r="18"></circle>
                        <path d="M26.5891785,13.7299868 C26.5968954,13.9211777 26.6017776,14.1112661 26.6017776,14.3038744 C26.6017776,20.1600787 22.1448572,26.9122344 13.9934176,26.9122344 C11.4906127,26.9122344 9.16151743,26.1784961 7.2,24.9203217 C7.54710433,24.9617411 7.89940577,24.9818996 8.25690433,24.9818996 C10.3330733,24.9818996 12.2443519,24.2747769 13.7606498,23.0855824 C11.8216532,23.0504625 10.1858217,21.7692947 9.62075347,20.0090474 C9.89131845,20.0607036 10.1694429,20.0884215 10.4549693,20.0884215 C10.8589269,20.0884215 11.2504429,20.0342456 11.6229029,19.9323506 C9.59555533,19.5246132 8.06823329,17.7339707 8.06823329,15.5872469 L8.06823329,15.531811 C8.66558661,15.863009 9.34908606,16.0630193 10.0751074,16.0856976 C8.88591281,15.2916413 8.10335319,13.9351941 8.10335319,12.3976353 C8.10335319,11.5846805 8.322262,10.8232243 8.7035413,10.1702776 C10.8891647,12.8505718 14.1545282,14.6145989 17.8375508,14.7996477 C17.7621138,14.4749067 17.7230567,14.1377241 17.7230567,13.7906198 C17.7230567,11.3430933 19.7061501,9.36 22.1549365,9.36 C23.4283873,9.36 24.580887,9.89735026 25.3888023,10.7578666 C26.3979876,10.5592738 27.3466975,10.1902786 28.2024892,9.68206368 C27.8727086,10.7177071 27.1693656,11.5859404 26.2545158,12.1344723 C27.1503095,12.0262778 28.0048413,11.7886279 28.8,11.436169 C28.2061114,12.3256632 27.4550495,13.1046006 26.5891785,13.7299868" id="Fill-1" fill="#F9FBFD"></path>
                    </g>
                </g>
            </g>
        </g>
    </g>
</svg>