<?xml version="1.0" encoding="UTF-8"?>
<svg width="24px" height="24px" viewBox="0 0 24 24" version="1.1" xmlns="http://www.w3.org/2000/svg" xmlns:xlink="http://www.w3.org/1999/xlink">
    <!-- Generator: Sketch 47.1 (45422) - http://www.bohemiancoding.com/sketch -->
    <title>•a/icon/business</title>
    <desc>Created with Sketch.</desc>
    <defs></defs>
    <g id="Symbols" stroke="none" stroke-width="1" fill="none" fill-rule="evenodd">
        <g id="•a/icon/business" stroke="#B2B7BB">
            <g id="Group" transform="translate(1.000000, 2.000000)">
                <path d="M2.77662917,1.2768703 C2.27952083,3.54801666 1.7881875,5.80624323 1.28612917,8.06201788 C1.24497083,8.2468556 1.27897917,8.32503442 1.44544583,8.39566883 C2.50080417,8.84342878 3.56670417,8.86455309 4.64387917,8.49600931 C5.24007917,8.29202768 5.22825417,8.28712382 5.2831625,7.64207789 C5.42570417,5.96769333 5.57897083,4.29434611 5.72710417,2.62062168 C5.7663375,2.17729406 5.8023625,1.73368353 5.84104583,1.2768703 L2.77662917,1.2768703 Z M16.0964375,1.27592725 C16.1053292,1.4042763 16.1111958,1.51319853 16.1207292,1.62174354 C16.1751792,2.23972394 16.2305458,2.85761004 16.2853625,3.47549614 C16.4227708,5.0242665 16.5589875,6.57313117 16.7015292,8.1213357 C16.7073042,8.18423711 16.7600125,8.27175211 16.8134542,8.29664862 C18.0441708,8.87002278 19.2862542,8.91679804 20.5404375,8.37143246 C20.6785792,8.3113602 20.6856375,8.23648206 20.6548375,8.09832529 C20.3799292,6.86726834 20.1149208,5.63385377 19.8451458,4.40157085 C19.6175375,3.36185867 19.3874542,2.32290092 19.1567292,1.27592725 L16.0964375,1.27592725 Z M14.9277792,1.27800196 L11.5654458,1.27800196 C11.5589375,1.31930753 11.5502292,1.34901359 11.5501375,1.37881396 C11.5492208,3.62478089 11.5502292,5.87084213 11.5452792,8.11690337 C11.5450042,8.2600583 11.6181542,8.30183539 11.7216458,8.34776191 C12.9349458,8.88577171 14.1486125,8.8780387 15.3675042,8.36558555 C15.5089458,8.30607912 15.5576208,8.23761372 15.5424042,8.07229712 C15.3703458,6.21260331 15.2078208,4.35206075 15.0418125,2.4918011 C15.0056958,2.08723282 14.9659125,1.68313607 14.9277792,1.27800196 L14.9277792,1.27800196 Z M6.3809625,8.28061678 C7.64312083,8.86738224 8.89712083,8.90944225 10.1680792,8.37171537 C10.3323458,8.30230692 10.3924792,8.21771537 10.3918375,8.0281624 C10.3841375,5.86046859 10.3870708,3.69286908 10.3865208,1.52517526 C10.3864292,1.44275273 10.3795542,1.36033019 10.3760708,1.28054819 L7.0035625,1.28054819 C6.79602917,3.61421874 6.5896875,5.93412076 6.3809625,8.28061678 L6.3809625,8.28061678 Z M10.4219042,18.8948287 L18.5001208,18.8948287 L18.5001208,9.95151206 C18.4559375,9.94208157 18.4196375,9.92972762 18.3826958,9.92718138 C17.6355208,9.87550227 16.9231792,9.6955684 16.2554792,9.33702094 C16.1982792,9.30637183 16.0951542,9.32636448 16.0297042,9.35814525 C14.3880458,10.1551165 12.7487708,10.1579456 11.1050958,9.36352064 C11.0304792,9.32749614 10.9117708,9.32391255 10.8381625,9.35937122 C9.1873375,10.1546449 7.54137083,10.1620007 5.8925625,9.3533357 C5.82500417,9.32023466 5.72197083,9.32947655 5.6461625,9.35380723 C5.1462125,9.51450288 4.6528625,9.69773742 4.14970417,9.84607912 C3.9205375,9.91360147 3.6738625,9.9180338 3.4403875,9.9503804 L3.4403875,18.8972806 L4.92117083,18.8972806 L10.4219042,18.8948287 Z M19.6695125,9.86541164 L19.6695125,10.1493639 C19.6695125,12.6640056 19.6696042,16.7817374 19.6694208,19.2963792 C19.6694208,19.899648 19.4885625,20.0868434 18.9056542,20.0868434 C13.1539375,20.0869377 7.8604625,20.0869377 3.0254125,20.0868434 C2.44204583,20.0868434 2.26604583,19.9029487 2.26595417,19.2939273 C2.26577083,16.7792855 2.2658625,12.6614594 2.2658625,10.1469119 L2.2658625,9.86682621 C1.57790417,9.73857146 0.9461375,9.51780355 0.358370833,9.17245879 C0.0346958333,8.98224568 -0.0531208333,8.78137612 0.0287375,8.40802278 C0.593770833,5.82887642 1.1592625,3.24973007 1.7263125,0.671149541 C1.8242125,0.226313043 2.00424583,0.0789143907 2.4437875,0.0788200857 C8.12675417,0.078159951 13.8097208,0.078159951 19.4926875,0.0788200857 C19.9318625,0.0789143907 20.1120792,0.226973178 20.2099792,0.672186895 C20.7764792,3.25105034 21.3413292,5.83019669 21.9059958,8.40943735 C21.9875792,8.78203625 21.8969208,8.98366026 21.5749875,9.17293031 C20.9868542,9.5187466 20.3515125,9.72885805 19.6695125,9.86541164 L19.6695125,9.86541164 Z" id="Fill-1" stroke-width="0.4" fill="#B2B7BB"></path>
                <path d="M14.3367526,16.3034175 C13.9569477,16.3034175 13.5771429,16.3055709 13.1974253,16.3028022 C12.8828694,16.3005463 12.7210554,16.1148387 12.719747,15.7448591 C12.7167811,14.8454437 12.716345,13.9460283 12.7200087,13.046613 C12.7215788,12.6700706 12.8887139,12.4811841 13.2131269,12.4801587 C13.9782322,12.4778002 15.6823818,12.47739 16.4474871,12.4803638 C16.7675385,12.4815943 16.9323183,12.6776589 16.9331906,13.0550216 C16.9352842,13.954437 16.9353714,14.8538524 16.9331034,15.7532677 C16.9321439,16.1089937 16.768498,16.299931 16.4652822,16.3025971 C16.0688162,16.3059811 14.7332186,16.3034175 14.3367526,16.3034175 Z" id="Stroke-4" stroke-width="1.75"></path>
                <path d="M5.86413043,18.875 L5.86413043,12.5163043 L9.875,12.5163043 L9.875,18.875 L5.86413043,18.875 Z" id="Stroke-6" stroke-width="1.75"></path>
            </g>
        </g>
    </g>
</svg>