<?xml version="1.0" encoding="UTF-8"?>
<svg width="24px" height="24px" viewBox="0 0 24 24" version="1.1" xmlns="http://www.w3.org/2000/svg" xmlns:xlink="http://www.w3.org/1999/xlink">
    <!-- Generator: Sketch 47.1 (45422) - http://www.bohemiancoding.com/sketch -->
    <title>•a/icon/changing</title>
    <desc>Created with Sketch.</desc>
    <defs></defs>
    <g id="Symbols" stroke="none" stroke-width="1" fill="none" fill-rule="evenodd">
        <g id="•a/icon/changing">
            <g id="Group" transform="translate(4.000000, 1.000000)">
                <path d="M4.67696962,10.2600294 C4.27519781,10.648602 3.98926867,10.9288655 3.69874261,11.2055001 C3.22250051,11.6585557 2.77353354,12.1400841 2.25806429,12.5523842 C1.69049649,13.0065563 0.802982255,13.0361459 0.357692828,12.6405946 C-0.200068187,12.1445505 -0.00699706658,11.577603 0.274028676,11.0310333 C0.359838063,10.8649409 0.472309652,10.6988484 0.612975755,10.5687659 C1.84832447,9.42733406 3.04659126,8.24710075 4.35947489,7.18410915 C4.80782893,6.82121811 5.53751518,6.63865601 6.16024616,6.58533894 C7.32510859,6.48596262 8.51264922,6.46781807 9.67659226,6.56049486 C10.3498895,6.61409108 11.1494491,6.79665318 11.6247718,7.18941294 C12.9983349,8.32526189 14.2686203,9.57053645 15.5143887,10.8264186 C16.1521364,11.4695732 16.1282323,12.1467837 15.637893,12.578624 C15.1356016,13.0205136 14.2934437,13.0252591 13.6192271,12.4792477 C13.0320458,12.0038604 12.5450775,11.4260262 12.0127528,10.8942513 C11.8325531,10.7139224 11.6495952,10.5355475 11.4176034,10.306647 C11.3373104,10.4900465 11.283986,10.5704408 11.2671305,10.6566972 C11.0351387,11.839722 11.0363646,14.5900012 9.69007659,14.5900012 C8.38791914,14.5900012 7.08392292,14.5531538 5.78391071,14.6042377 C5.05269215,14.6329898 4.74439128,11.6719547 4.80690955,11.0014437 C4.82437789,10.8107864 4.74255251,10.612592 4.67696962,10.2600294 Z" id="Stroke-3" stroke="#B1B6BB" stroke-width="1.75" fill="#FFFFFF"></path>
                <path d="M4.35495612,14.75 C5.30633065,15.4382771 6.15356638,16.0513291 7.09663197,16.7338706 C6.76002726,16.8734379 6.17068245,17.5438817 5.32859755,18.745202 C6.50728716,21.1058155 6.50728716,22.3017151 5.32859755,22.3329008 C3.56056313,22.3796794 2.80279146,17.6821056 3.04350144,16.9692005 C3.28421142,16.2562954 3.95197214,15.153701 4.35495612,14.75 Z" id="Stroke-11" stroke="#B1B6BB" stroke-width="1.75"></path>
                <path d="M10.3549561,14.75 C11.3063307,15.4382771 12.1535664,16.0513291 13.096632,16.7338706 C12.7600273,16.8734379 12.1706824,17.5438817 11.3285976,18.745202 C12.5072872,21.1058155 12.5072872,22.3017151 11.3285976,22.3329008 C9.56056313,22.3796794 8.80279146,17.6821056 9.04350144,16.9692005 C9.28421142,16.2562954 9.95197214,15.153701 10.3549561,14.75 Z" id="Stroke-11-Copy" stroke="#B1B6BB" stroke-width="1.75" transform="translate(11.048316, 18.541624) scale(-1, 1) translate(-11.048316, -18.541624) "></path>
                <path d="M5.00024793,3.0379238 C5.02265646,1.34595651 6.34799936,-0.0144857852 7.95979344,0.000116457737 C9.66284151,0.0152595244 11.0192324,1.37137523 10.9997937,3.03927586 C10.9808949,4.66147688 9.61883441,6.02137836 8.0348485,5.9997454 C6.33639012,5.97648998 4.97891933,4.65174205 5.00024793,3.0379238 Z" id="Stroke-15" stroke="#B1B6BB" stroke-width="1.75" fill="#FFFFFF"></path>
                <path d="M7.04597718,13.8388947 C7.7752888,13.8388947 8.50539835,13.8219569 9.23364606,13.8498391 C9.44084291,13.8576566 9.78900808,13.9600652 9.82039348,14.0820174 C9.92518881,14.4869613 10.1103095,15.0750942 9.91268784,15.3143082 C9.3357816,16.0134488 8.61551324,16.6099203 7.89976649,17.1847635 C7.36249098,17.6157656 6.71909025,17.6003913 6.1858044,17.165741 C5.49080394,16.5992364 4.84660527,15.9725375 4.18963966,15.3619946 C3.71460299,14.9203087 4.2798062,14.525788 4.2954989,14.1031245 C4.29895661,14.0085333 4.65776091,13.8594806 4.8583083,13.8508814 C5.58629003,13.8203934 6.31639958,13.8388947 7.04597718,13.8388947" id="Fill-17" fill="#FFFFFF"></path>
                <path d="M8.06130291,12.9236183 C9.0337184,12.9236183 10.0071978,12.9024461 10.9781947,12.9372989 C11.2544572,12.9470707 11.7186774,13.0750814 11.7605246,13.2275217 C11.9002517,13.7337017 12.1470793,14.4688677 11.8835838,14.7678852 C11.1143755,15.641811 10.1540176,16.3874004 9.19968866,17.1059544 C8.4833213,17.644707 7.62545366,17.6254891 6.91440586,17.0821763 C5.98773858,16.3740456 5.12880703,15.5906719 4.25285288,14.8274933 C3.61947066,14.2753858 4.37307493,13.782235 4.39399853,13.2539056 C4.39860882,13.1356667 4.87701454,12.9493508 5.14441107,12.9386018 C6.11505338,12.9004917 7.08853278,12.9236183 8.06130291,12.9236183 Z" id="Stroke-19" stroke="#B1B6BB" stroke-width="1.75" fill="#FFFFFF"></path>
            </g>
        </g>
    </g>
</svg>