<?xml version="1.0" encoding="UTF-8"?>
<svg width="24px" height="24px" viewBox="0 0 24 24" version="1.1" xmlns="http://www.w3.org/2000/svg" xmlns:xlink="http://www.w3.org/1999/xlink">
    <!-- Generator: Sketch 47.1 (45422) - http://www.bohemiancoding.com/sketch -->
    <title>•a/icon/clock copy</title>
    <desc>Created with Sketch.</desc>
    <defs></defs>
    <g id="Symbols" stroke="none" stroke-width="1" fill="none" fill-rule="evenodd">
        <g id="•a/icon/clock-copy" fill="#B2B7BB">
            <g id="Page-1" transform="translate(4.000000, 2.000000)">
                <g id="Group-3" stroke="#B2B7BB" stroke-width="0.5">
                    <path d="M13.9112002,11.9987373 L13.9139152,11.9987373 C13.9139152,13.200698 13.913957,14.402698 13.9137899,15.6046588 C13.9137899,15.6732471 13.912871,15.7418353 13.910699,15.8103843 C13.9080258,15.8952863 13.9482076,15.9387765 14.041102,15.9373255 C14.1315319,15.9359137 14.2220872,15.9391294 14.3124337,15.936149 C14.5842248,15.9272471 14.8566425,15.9550902 15.1179079,15.8319137 C15.3337703,15.730149 15.5048563,15.5899922 15.6285344,15.4050902 C15.7667064,15.1986196 15.8217998,14.967051 15.821215,14.7181098 C15.8166622,12.9086196 15.8177899,11.0991294 15.819586,9.2896 C15.8199201,8.94591373 15.7133673,8.64387451 15.4510995,8.39924706 C15.2733305,8.23340392 15.0674091,8.1050902 14.8105713,8.08924706 C14.5472174,8.07301176 14.2824435,8.07544314 14.0182543,8.07226667 C13.9315835,8.07120784 13.9104484,8.12430588 13.9104902,8.1968549 C13.9114509,9.46414902 13.9112002,10.7314824 13.9112002,11.9987373 M8.94289803,6.51669804 C9.70514128,6.51669804 10.4673845,6.51861961 11.2296278,6.5156 C11.4996229,6.51454118 11.7745049,6.52571765 12.0259128,6.40795294 C12.1858047,6.33305098 12.3515025,6.26175686 12.4935172,6.16222745 C12.7294705,5.99677647 12.9018931,5.78050196 13.0107432,5.51732549 C13.1010061,5.2990902 13.1760651,5.07916863 13.1525491,4.84489412 C13.1203452,4.52430588 13.0296646,4.22222745 12.8148882,3.95767843 C12.4847875,3.55101176 12.0607482,3.31673725 11.5130307,3.2910902 C11.4262346,3.28701176 11.3387703,3.28630588 11.2520577,3.2908549 C11.1145541,3.29814902 10.9981437,3.24363922 10.8961437,3.17179608 C10.800242,3.10418824 10.728984,3.01716863 10.6959029,2.89622745 C10.6278612,2.64732549 10.6685025,2.37803137 10.5347998,2.1430902 C10.455355,2.00348235 10.3871462,1.85395294 10.2833919,1.73163922 C9.99297174,1.38936471 9.61450246,1.18587451 9.14460074,1.13191373 C8.81036486,1.09352157 8.490957,1.14061961 8.19239189,1.27148235 C7.90314128,1.39826667 7.67019533,1.59897255 7.49108968,1.85050196 C7.34623464,2.05387451 7.05447789,2.13473725 6.89362531,2.08579608 C6.7328145,2.03689412 6.57430098,1.98116863 6.41541155,1.92677647 C6.13401351,1.83042353 5.84175553,1.84069804 5.56110934,1.89689412 C5.30239189,1.94873725 5.06113391,2.06301176 4.85141155,2.22575686 C4.5874312,2.43058039 4.38844349,2.68218824 4.29788821,2.98916863 C4.20766708,3.29505098 3.90484152,3.46391373 3.61312654,3.40183529 C3.48497912,3.37454118 3.36079975,3.3241098 3.23152457,3.30956078 C3.06311179,3.29058039 2.89135749,3.29112941 2.72123219,3.2936 C2.47571376,3.29712941 2.25204054,3.38548235 2.04574324,3.49681569 C1.78172113,3.63928627 1.56698649,3.83454118 1.41231572,4.08905098 C1.27218059,4.3196 1.18688821,4.56163922 1.16805037,4.82458039 C1.15577027,4.99548235 1.19173342,5.15936471 1.23851474,5.32587451 C1.29185381,5.51579608 1.38082187,5.68465882 1.49823464,5.8416 C1.63055897,6.01850196 1.79517076,6.16818824 1.99557862,6.27622745 C2.18742383,6.37967843 2.38319533,6.47944314 2.61259091,6.48983529 C2.81746806,6.49912941 3.02226167,6.51148235 3.22726413,6.51567843 C3.44989312,6.52022745 3.67285627,6.51265882 3.89544349,6.51807059 C4.17613145,6.5248549 4.40882678,6.61591373 4.50364251,6.88748235 C4.53952211,6.99030588 4.55447543,7.10371765 4.55531081,7.21246275 C4.56003071,7.83003137 4.55744103,8.44767843 4.55764988,9.06528627 C4.55769165,9.20277647 4.56880221,9.33273725 4.65789558,9.45599216 C4.79823956,9.65003137 5.16609951,9.76556078 5.38108477,9.66179608 C5.64230835,9.53567843 5.77651229,9.33599216 5.77580221,9.05654118 C5.77408968,8.42258039 5.77492506,7.78861961 5.77576044,7.15465882 C5.77580221,7.08289412 5.76348034,7.0043451 5.78975307,6.94097255 C5.82976781,6.84469804 5.88381695,6.74591373 5.95837469,6.6716 C6.08401597,6.54630588 6.25969656,6.51756078 6.43688084,6.51728627 C7.2722199,6.51591373 8.10755897,6.51669804 8.94289803,6.51669804 M12.7260455,12.2245412 L12.7265049,12.2245412 C12.7265049,10.6495216 12.7265467,9.07454118 12.7264214,7.49956078 C12.7264214,7.38022745 12.681269,7.35187451 12.5671143,7.39477647 C12.477645,7.42842353 12.3865049,7.45830588 12.2961167,7.48979608 C12.0195221,7.58618824 11.7315663,7.62552157 11.4387236,7.62591373 C9.99435012,7.62787451 8.54997666,7.62658039 7.10564496,7.62693333 C6.93957125,7.62697255 6.93364005,7.63387451 6.93364005,7.78650196 C6.93355651,8.21779608 6.92879484,8.64920784 6.93514373,9.08042353 C6.94015602,9.41873725 6.8460086,9.72493333 6.66118059,10.0151294 C6.42384889,10.3878353 6.07014865,10.6243059 5.64243366,10.7365804 C5.27733047,10.832502 4.89798403,10.8237961 4.52749263,10.6892078 C4.26789803,10.5949333 4.05007248,10.4550118 3.86081695,10.2710118 C3.63985872,10.056149 3.47967445,9.80179608 3.42963514,9.50779608 C3.38761548,9.26101176 3.38690541,9.00705098 3.38130835,8.75599216 C3.37399877,8.42607059 3.38005528,8.09595294 3.38001351,7.76591373 C3.37997174,7.66116863 3.35044103,7.6303451 3.24029607,7.62740392 C3.13942383,7.62469804 3.03842629,7.62701176 2.93751229,7.62654118 C2.52742383,7.62465882 2.13132801,7.56038431 1.75661794,7.39689412 C1.6480602,7.34952157 1.59584889,7.38477647 1.59584889,7.50007059 C1.59609951,10.4834039 1.59630835,13.4667373 1.59668428,16.4500706 C1.59668428,16.5317569 1.59317568,16.6138745 1.6006941,16.6950118 C1.61610688,16.8608157 1.61522973,17.0320314 1.66192752,17.1903843 C1.7477629,17.4815608 1.88572604,17.7518745 2.08488084,17.9962667 C2.35788329,18.3312471 2.70260319,18.5732863 3.11168919,18.7341098 C3.40624447,18.8498745 3.72306265,18.8922275 4.03896192,18.893051 C6.12373833,18.8982275 8.20847297,18.898149 10.2932076,18.892149 C10.5136229,18.8915608 10.7398022,18.8624627 10.9525319,18.8088549 C11.146215,18.7600314 11.3324214,18.6719137 11.5085614,18.5787765 C11.6694975,18.4936784 11.8238759,18.3904627 11.9610037,18.2741882 C12.2147088,18.059051 12.4194189,17.8043451 12.5353698,17.498698 C12.6033698,17.3192471 12.6684459,17.1352078 12.6996057,16.9481098 C12.7310577,16.7591294 12.7248759,16.5637176 12.7251265,16.3711294 C12.7268808,14.9889333 12.7260455,13.6067373 12.7260455,12.2245412 M3.54291278,19.9999922 C3.47858845,19.9423451 3.41012899,19.9320314 3.34166953,19.9218745 C3.25270147,19.9086588 3.16093489,19.9043451 3.07530835,19.8805412 C2.93980958,19.8428941 2.80397666,19.8010902 2.67620516,19.7451686 C2.45746069,19.6494431 2.23403808,19.5570902 2.03208477,19.4348941 C1.71739681,19.2445412 1.42990049,19.0178353 1.20656143,18.7313255 C1.08238206,18.5719137 0.964760442,18.4066588 0.860880835,18.2351294 C0.777760442,18.0979922 0.712809582,17.9499137 0.652703931,17.8020314 C0.592514742,17.6539529 0.532242015,17.503051 0.500330467,17.3482667 C0.422097052,16.9691294 0.396576167,16.5854039 0.403342752,16.1981098 C0.413283784,15.6329725 0.405890663,15.0676 0.405890663,14.5023059 C0.405890663,11.8197176 0.40605774,9.13705098 0.404971744,6.45446275 C0.404929975,6.38332549 0.405974201,6.30665882 0.379785012,6.24214902 C0.320890663,6.09728627 0.228706388,5.96320784 0.180212531,5.81599216 C0.111042998,5.60599216 0.0413722359,5.39042353 0.0215737101,5.17324706 C-0.00795700246,4.84971765 -0.0259594595,4.5208549 0.0976351351,4.20418824 C0.147465602,4.07646275 0.171566339,3.93854118 0.232298526,3.81614902 C0.350421376,3.57822745 0.489554054,3.35003137 0.676094595,3.15116863 C0.892249386,2.92069804 1.12770147,2.71069804 1.41929115,2.56567843 C1.56527396,2.49305098 1.71317813,2.42038431 1.86793243,2.36779608 C2.04908477,2.30622745 2.23595946,2.24077647 2.42521499,2.22336471 C2.70402334,2.19771765 2.98713391,2.2156 3.26823956,2.20858039 C3.3170258,2.20736471 3.37696437,2.18567843 3.4102543,2.15367843 C3.45724447,2.10854118 3.477043,2.03940392 3.52090049,1.99030588 C3.6892715,1.80175686 3.8452371,1.59901176 4.03841892,1.43544314 C4.28940909,1.22293333 4.57548526,1.05320784 4.90416585,0.950384314 C5.12733784,0.880541176 5.34378501,0.798188235 5.58312162,0.787992157 C5.96518305,0.771717647 6.34678501,0.746109804 6.71907248,0.864619608 C6.75232064,0.875207843 6.80820762,0.85987451 6.83786364,0.83787451 C7.00615111,0.713129412 7.15748034,0.564541176 7.33742138,0.458070588 C7.66626904,0.263443137 7.8648566,0.502933333 8.2593652,0.458070588 C8.29537011,0.453952941 9.00996432,0.0408317222 9.73935012,0.113011765 C10.0281164,0.141588081 10.1340676,0.254188235 10.3179349,0.348423529 C10.4955786,0.439443137 10.6652862,0.549247059 10.8222125,0.669482353 C11.0734115,0.861835294 11.2795,1.09638431 11.4355909,1.36293333 C11.5298219,1.52387451 11.5985737,1.69838431 11.6727973,1.86905098 C11.7454754,2.03618824 11.7415074,2.26665882 12.0380676,2.23603137 C12.2707629,2.31720784 12.5014115,2.38061961 12.7137654,2.4788549 C12.9100381,2.56963922 13.0927359,2.68991373 13.2704631,2.81136471 C13.4874951,2.95967843 13.6643452,3.1501098 13.8055246,3.36281569 C13.9254853,3.54352157 14.0332076,3.73407059 14.1202125,3.93046275 C14.1912617,4.09081569 14.2319865,4.26454118 14.2715,4.43532549 C14.3424656,4.74195294 14.3455147,5.05261961 14.2790602,5.35967843 C14.2392543,5.54356078 14.178188,5.72387451 14.117957,5.90320784 C14.0890946,5.98924706 14.0512936,6.07661961 13.9973698,6.1503451 C13.9297457,6.24269804 13.9100307,6.33944314 13.9113256,6.4461098 C13.912871,6.57022745 13.9119939,6.69442353 13.9110332,6.81858039 C13.9102396,6.92971765 13.9373894,6.95661961 14.0583943,6.95705098 C14.2637727,6.95771765 14.469527,6.94995294 14.6744042,6.95924706 C14.9701708,6.97265882 15.2653943,7.0156 15.5325909,7.13552157 C15.7457801,7.23116863 15.9560872,7.3483451 16.1343157,7.4923451 C16.3127948,7.63658039 16.4609496,7.81830588 16.6012101,7.99814902 C16.691473,8.11387451 16.7587629,8.25089412 16.8088857,8.38724706 C16.8762592,8.57042353 16.9304337,8.76003137 16.9649349,8.95089412 C16.9902887,9.09105098 16.977215,9.23771765 16.9772568,9.38144314 C16.9778415,11.1330902 16.9787604,12.8847373 16.9764214,14.6363451 C16.9760872,14.8962275 16.9806818,15.1540314 16.8953477,15.4116 C16.8160283,15.6510118 16.715699,15.8783843 16.5637432,16.0782275 C16.2680184,16.4673647 15.8832838,16.7531686 15.3944607,16.9138745 C15.1481486,16.9948157 14.8985369,17.0346196 14.6414066,17.0419922 C14.4362371,17.0478353 14.2306916,17.0415216 14.025355,17.043051 C13.8812518,17.0440706 13.8592396,17.0681098 13.8456229,17.2012863 C13.8383968,17.2722667 13.8269939,17.3441098 13.8055246,17.4122275 C13.7623354,17.5490902 13.7172666,17.6860314 13.6612961,17.8185412 C13.5926278,17.9809333 13.5260897,18.146502 13.4334877,18.2970118 C13.2582248,18.582149 13.0394386,18.838502 12.7853575,19.0667765 C12.4748464,19.3458353 12.1175123,19.5636392 11.7249668,19.7197569 C11.4491658,19.8294824 11.1622543,19.9266588 10.8540405,19.9351686 C10.818328,19.936149 10.7831167,19.953051 10.7476966,19.9625804 C10.7491167,19.9708941 8.34752211,19.9833647 3.54291278,19.9999922 Z" id="Fill-1"></path>
                </g>
                <path d="M5.00328076,14.4941574 C5.00335081,13.8511418 5.00194988,13.2080904 5.00433146,12.5650391 C5.00489183,12.4100848 5.08236325,12.2686421 5.28409716,12.1451791 C5.57605094,11.9665259 6.21739665,11.9736391 6.47418709,12.0548159 C6.85636077,12.1756337 6.99764455,12.3566818 6.99813487,12.5728315 C7.00100678,13.861901 6.99981599,15.1509349 6.99939571,16.4400402 C6.99932566,16.6467889 6.84949621,16.8228327 6.50367667,16.9306037 C6.34488127,16.9801104 6.12073248,17.0084919 5.93714062,16.9977327 C5.29558478,16.9602005 5.01385778,16.7708596 5.00727341,16.4500845 C4.99375444,15.7981327 5.00321071,15.1461451 5.00328076,14.4941574" id="Fill-4"></path>
                <path d="M9.0015632,14.4933548 C9.00149252,13.8440103 9.00410793,13.19463 9.00000809,12.5452855 C8.99859436,12.3234595 9.18237993,12.1585836 9.55341473,12.0447193 C9.8647899,11.9490991 10.4956692,12.0163516 10.7377007,12.1562583 C10.9822769,12.2976317 10.9950712,12.4656915 10.9962728,12.634574 C11.0018571,13.4477571 10.9988176,14.2609401 10.9988176,15.0741232 C10.9988176,15.4971344 11.0029174,15.9201098 10.9958487,16.3430494 C10.9940816,16.4496161 10.975703,16.5581144 10.9308169,16.6619265 C10.8602715,16.8250496 10.6492716,16.9336195 10.3280709,16.9732198 C10.1675413,16.9930378 9.9881383,17.0095648 9.83078957,16.9935744 C9.301063,16.9396651 9.00340106,16.744597 9.00248213,16.4682536 C9.00007878,15.8099659 9.00170458,15.1516425 9.0015632,14.4933548" id="Fill-6"></path>
            </g>
        </g>
    </g>
</svg>