<?xml version="1.0" encoding="UTF-8"?>
<svg width="24px" height="24px" viewBox="0 0 24 24" version="1.1" xmlns="http://www.w3.org/2000/svg" xmlns:xlink="http://www.w3.org/1999/xlink">
    <!-- Generator: Sketch 47.1 (45422) - http://www.bohemiancoding.com/sketch -->
    <title>•a/icon/customer</title>
    <desc>Created with Sketch.</desc>
    <defs></defs>
    <g id="Symbols" stroke="none" stroke-width="1" fill="none" fill-rule="evenodd">
        <g id="•a/icon/customer" stroke="#B2B7BB" stroke-width="0.3" fill="#B2B7BB">
            <path d="M15.366741,17.606828 L15.366741,15.7609639 C15.4074548,15.7815358 15.629645,15.8909411 15.6801428,15.9211757 C16.2053196,16.2104296 16.2359339,16.5296064 16.2359339,16.7393779 C16.2359339,17.3478086 15.7710388,17.5875029 15.366741,17.606828 L15.366741,17.606828 Z M14.6900708,13.975257 C14.2655739,13.8159803 13.8514921,13.6557686 13.8514921,13.1367946 C13.8514921,12.5386498 14.467565,12.5090387 14.6900708,12.4981293 L14.6900708,13.975257 Z M15.366741,14.2149513 L15.366741,12.5483124 C15.5624198,12.5816639 15.8070184,12.6277949 16.0891748,12.8416184 C16.3678594,13.0526366 16.773104,12.9719074 16.9725702,12.6867055 C17.1717208,12.4018152 17.0991303,12.000039 16.797406,11.8229956 C16.3555505,11.5645996 15.8388952,11.4159205 15.3771561,11.3810106 L15.3771561,10.8673354 C15.3771561,10.6824997 15.2253472,10.5328856 15.0385054,10.5328856 C14.8516637,10.5328856 14.6998547,10.6824997 14.6998547,10.8673354 L14.6998547,11.3810106 C14.103981,11.4411679 13.6794841,11.5608592 13.2553027,11.9196214 C12.6998272,12.39901 12.6392299,12.9775179 12.6392299,13.3764889 C12.6392299,13.9955173 12.9119179,14.384514 13.1543072,14.6341826 C13.6697001,15.1525331 14.5789757,15.4523848 14.6698717,15.4816842 L14.6698717,17.566931 C14.5183783,17.5270339 14.2453747,17.4575256 13.9824707,17.2876513 C13.9079865,17.2384033 13.8265588,17.1816746 13.7426063,17.1180886 C13.4307825,16.8805762 12.9759869,16.9796955 12.7856734,17.3200677 C12.6231337,17.6102567 12.7089799,17.977123 12.9882958,18.1610237 C13.4484567,18.4639923 13.9922546,18.7220766 14.6698717,18.7152193 L14.6698717,19.6577882 C14.6698717,19.8485462 14.8251523,20.0040826 15.0183063,20.0065762 C15.2155632,20.0093814 15.3771561,19.8522866 15.3771561,19.6577882 L15.3771561,18.7152193 C15.7912379,18.6743871 16.5086219,18.6148532 17.0842965,17.8564966 C17.4380966,17.3973683 17.48891,16.8587575 17.48891,16.6293491 C17.48891,15.2825104 16.5591197,14.6136106 15.366741,14.2149513 L15.366741,14.2149513 Z M15.2300906,21.5460939 C11.6591096,21.5460939 8.75350457,18.6197186 8.75350457,15.0224851 C8.75350457,11.4255771 11.6591096,8.4992019 15.2300906,8.4992019 C18.8010717,8.4992019 21.7066767,11.4255771 21.7066767,15.0224851 C21.7066767,18.6197186 18.8010717,21.5460939 15.2300906,21.5460939 M6.52135849,18.2647499 L6.48417761,18.262796 L6.44699673,18.2647499 C5.09587586,18.3438851 4.01924689,18.1113643 3.70563424,17.6736781 C2.89444443,16.5426631 1.49708994,11.8714048 2.90252723,10.6511591 C4.14954163,9.56866732 5.57405432,9.44589373 6.1553693,9.44589373 C6.30958913,9.44589373 6.40464286,9.45436087 6.42080846,9.45598917 L6.48417761,9.46250236 L6.54754676,9.45598917 C6.61253248,9.44980164 7.89123145,9.33614652 9.22263029,10.0649722 C8.12207622,11.416133 7.46025655,13.1424534 7.46025655,15.0224851 C7.46025655,16.1495922 7.69983075,17.2203603 8.12757253,18.1891969 C7.67752222,18.2712631 7.12983168,18.3008981 6.52135849,18.2647499 M6.50195977,3.42673129 C7.71373316,3.42673129 8.69983477,4.41999242 8.69983477,5.6405638 C8.69983477,6.86113518 7.71373316,7.85439631 6.50195977,7.85439631 C5.28986307,7.85439631 4.30408476,6.86113518 4.30408476,5.6405638 C4.30408476,4.41999242 5.28986307,3.42673129 6.50195977,3.42673129 M15.2300906,7.19656435 C13.2886021,7.19656435 11.5126492,7.91887687 10.1495658,9.10916193 C9.63129666,8.7838282 9.11302752,8.56400811 8.63290919,8.41941535 C9.45832474,7.7759124 9.99308279,6.77125319 9.99308279,5.6405638 C9.99308279,3.70158782 8.42695944,2.12409375 6.50195977,2.12409375 C4.5769601,2.12409375 3.01083675,3.70158782 3.01083675,5.6405638 C3.01083675,6.76571698 3.5400985,7.76646828 4.35872449,8.41062254 C3.63579885,8.62360378 2.82331579,9.00006603 2.05803627,9.66473684 C-0.280156144,11.6948975 1.8731018,17.3431338 2.65713341,18.4363724 C3.33899843,19.3876235 4.83431645,19.5823678 5.94392325,19.5823678 C6.13791045,19.5823678 6.32025842,19.5761803 6.48417761,19.5673875 C7.10461335,19.6009304 7.98240544,19.587904 8.7758131,19.3742714 C10.1718743,21.4679356 12.5436912,22.8487314 15.2300906,22.8487314 C19.514298,22.8487314 22.9999247,19.3377976 22.9999247,15.0224851 C22.9999247,10.7071725 19.514298,7.19656435 15.2300906,7.19656435" id="Fill-4"></path>
        </g>
    </g>
</svg>