<?xml version="1.0" encoding="UTF-8"?>
<svg width="24px" height="24px" viewBox="0 0 24 24" version="1.1" xmlns="http://www.w3.org/2000/svg" xmlns:xlink="http://www.w3.org/1999/xlink">
    <!-- Generator: Sketch 47.1 (45422) - http://www.bohemiancoding.com/sketch -->
    <title>•a/icon/family</title>
    <desc>Created with Sketch.</desc>
    <defs></defs>
    <g id="Symbols" stroke="none" stroke-width="1" fill="none" fill-rule="evenodd">
        <g id="•a/icon/family">
            <g id="Page-1" transform="translate(1.000000, 1.000000)">
                <path d="M11.2077659,6.91339268 C11.2077659,5.34924634 12.4757171,4.08102683 14.0401317,4.08102683 C15.604278,4.08102683 16.8722293,5.34924634 16.8722293,6.91339268 C16.8722293,8.47753902 15.604278,9.74575854 14.0401317,9.74575854 C12.4757171,9.74575854 11.2077659,8.47753902 11.2077659,6.91339268" id="Fill-1" fill="#FFFFFF"></path>
                <path d="M14.0400512,4.61769268 C12.7742463,4.61769268 11.7442707,5.6474 11.7442707,6.91347317 C11.7442707,8.17927805 12.7742463,9.20898537 14.0400512,9.20898537 C15.3058561,9.20898537 16.3358317,8.17927805 16.3358317,6.91347317 C16.3358317,5.6474 15.3058561,4.61769268 14.0400512,4.61769268 M14.0400512,10.2821561 C12.1823927,10.2821561 10.6711,8.77086341 10.6711,6.91347317 C10.6711,5.05581463 12.1823927,3.54452195 14.0400512,3.54452195 C15.8977098,3.54452195 17.4090024,5.05581463 17.4090024,6.91347317 C17.4090024,8.77086341 15.8977098,10.2821561 14.0400512,10.2821561" id="Fill-3" stroke="#B2B7BB" stroke-width="0.4" fill="#B1B6BB"></path>
                <path d="M4.5887439,8.81593659 C4.5887439,7.3816439 5.7512561,6.21886341 7.18581707,6.21886341 C8.61984146,6.21886341 9.78262195,7.3816439 9.78262195,8.81593659 C9.78262195,10.2502293 8.61984146,11.4130098 7.18581707,11.4130098 C5.7512561,11.4130098 4.5887439,10.2502293 4.5887439,8.81593659" id="Fill-5" fill="#FFFFFF"></path>
                <path d="M7.18573659,6.75552927 C6.04978537,6.75552927 5.12524878,7.67979756 5.12524878,8.81601707 C5.12524878,9.95196829 6.04978537,10.8762366 7.18573659,10.8762366 C8.3216878,10.8762366 9.24622439,9.95196829 9.24622439,8.81601707 C9.24622439,7.67979756 8.3216878,6.75552927 7.18573659,6.75552927 M7.18573659,11.9494073 C5.45793171,11.9494073 4.05207805,10.543822 4.05207805,8.81601707 C4.05207805,7.0879439 5.45793171,5.68235854 7.18573659,5.68235854 C8.91354146,5.68235854 10.3193951,7.0879439 10.3193951,8.81601707 C10.3193951,10.543822 8.91354146,11.9494073 7.18573659,11.9494073" id="Fill-7" stroke="#B2B7BB" stroke-width="0.4" fill="#B1B6BB"></path>
                <path d="M17.3626415,11.6956293 C15.8966902,9.72662927 14.1890073,9.93965366 14.0401049,9.96245854 C13.8909341,9.93965366 12.1832512,9.72662927 10.7173,11.6956293 C9.3828122,13.4880927 10.290178,18.7101415 11.001422,21.0150439 C13.6033244,20.9914341 15.9656415,19.9526049 17.7135683,18.2763122 C18.1339829,15.846922 18.2903976,12.9421171 17.3626415,11.6956293" id="Fill-9" fill="#FFFFFF"></path>
                <path d="M18.3680951,17.5856195 C18.7037293,15.2353756 18.7345829,12.6399122 17.7931439,11.3751805 C16.2759488,9.33749756 14.481339,9.37720488 14.0399976,9.42200976 C13.5991927,9.37720488 11.803778,9.33749756 10.2871195,11.3751805 C8.82197317,13.342839 9.70894878,18.5326927 10.439778,21.0055463 C10.5959244,21.0127902 10.7531439,21.0173512 10.9111683,21.0173512 C11.1271439,21.0173512 11.3407049,21.007961 11.553461,20.9940098 C10.838461,18.8071561 9.98743659,13.5749122 11.1478024,12.0161317 C12.1772415,10.6330829 13.3129244,10.4812293 13.7620463,10.4812293 C13.8760707,10.4812293 13.9460951,10.4908878 13.9584366,10.4927659 L14.0399976,10.5053756 L14.1215585,10.4927659 C14.1829976,10.4833756 15.6403634,10.2808146 16.9321927,12.0161317 L16.9321927,12.0161317 C17.7979732,13.1789122 17.5439,16.3863512 17.0620463,18.849278 C17.5353146,18.468839 17.9720951,18.0457415 18.3680951,17.5856195" id="Fill-11" stroke="#B2B7BB" stroke-width="0.4" fill="#B1B6BB"></path>
                <g id="Group-15" transform="translate(0.000000, 0.090522)" fill="#B1B6BB">
                    <path d="M10.911061,1.25094146 C5.48645122,1.25094146 1.07330488,5.6643561 1.07330488,11.0889659 C1.07330488,16.5135756 5.48645122,20.926722 10.911061,20.926722 C16.3356707,20.926722 20.7490854,16.5135756 20.7490854,11.0889659 C20.7490854,5.6643561 16.3356707,1.25094146 10.911061,1.25094146 M10.911061,21.9998927 C4.89459756,21.9998927 0.000134146341,17.1054293 0.000134146341,11.0889659 C0.000134146341,5.07250244 4.89459756,0.177770732 10.911061,0.177770732 C16.9275244,0.177770732 21.8222561,5.07250244 21.8222561,11.0889659 C21.8222561,17.1054293 16.9275244,21.9998927 10.911061,21.9998927" id="Fill-13"></path>
                </g>
                <path d="M10.0144805,13.1865585 C8.82433415,11.2623634 7.43779756,11.4705585 7.31679756,11.4930951 C7.19579756,11.4705585 5.80926098,11.2623634 4.61911463,13.1865585 C3.99748049,14.1921195 3.9752122,16.3017049 4.17830976,18.3428756 C5.74835854,19.8195585 7.80106585,20.7864854 10.0727,20.9791195 C10.5542854,18.4534122 10.9199683,14.6503634 10.0144805,13.1865585" id="Fill-16" fill="#FFFFFF"></path>
                <path d="M10.6136854,21.0097585 C11.1081488,18.4038317 11.4735634,14.5253927 10.4709537,12.9043683 L10.4706854,12.9043683 C9.23492927,10.906661 7.7375878,10.906661 7.31690488,10.9514659 C6.89595366,10.9063927 5.3983439,10.906661 4.1628561,12.9043683 C3.53531951,13.9190512 3.44436829,15.8185634 3.58495366,17.7365878 C3.94795366,18.1417098 4.34449024,18.515978 4.76919756,18.8564415 C4.51405122,16.7382707 4.47192927,14.4449049 5.07531951,13.4688561 C6.08490488,11.8371 7.17336829,12.0125634 7.21924634,12.0206122 L7.31797805,12.0380512 L7.41429512,12.0206122 C7.46017317,12.0125634 8.54863659,11.8365634 9.55795366,13.4688561 C10.3698073,14.7813439 10.0145878,18.4735878 9.54319756,20.9201488 C9.89439268,20.9692463 10.2514902,20.9990268 10.6136854,21.0097585" id="Fill-18" stroke="#B2B7BB" stroke-width="0.4" fill="#B1B6BB"></path>
                <path d="M13.4714854,20.6772634 C13.6088512,19.3494829 13.5688756,18.0163366 13.0915829,17.3635805 C12.1297537,16.0473366 11.0088268,16.1898 10.9111683,16.2050927 C10.8132415,16.1898 9.69258293,16.0473366 8.73048537,17.3635805 C8.25346098,18.0163366 8.21321707,19.3494829 8.35085122,20.6772634 C9.16753415,20.8978 10.0255341,21.0174585 10.9111683,21.0174585 C11.7968024,21.0174585 12.6545341,20.8978 13.4714854,20.6772634" id="Fill-20" fill="#FFFFFF"></path>
                <path d="M14.0312512,20.5072195 C14.1517146,19.155561 14.0755195,17.799878 13.5249829,17.0470488 C12.4963488,15.640122 11.2613976,15.6350244 10.9110073,15.6650732 C10.5608854,15.6339512 9.32566585,15.6398537 8.2973,17.0470488 C7.74676341,17.8001463 7.67056829,19.155561 7.79103171,20.5072195 C8.15537317,20.629561 8.5283,20.733122 8.91008049,20.8122683 C8.76037317,19.5212439 8.76708049,18.2227073 9.16361707,17.6802195 C9.7933,16.8187317 10.470739,16.729122 10.7253488,16.729122 C10.785178,16.729122 10.8219341,16.7342195 10.8286415,16.7350244 L10.9120805,16.7473659 L10.9931049,16.7352927 C11.029861,16.7301951 11.8806171,16.6159024 12.6583976,17.6802195 C13.0552024,18.2227073 13.0616415,19.5209756 12.9122024,20.8122683 C13.2939829,20.733122 13.6669098,20.629561 14.0312512,20.5072195" id="Fill-22" stroke="#B2B7BB" stroke-width="0.4" fill="#B1B6BB"></path>
                <g id="Group-26" transform="translate(0.000000, 0.090522)" fill="#B1B6BB">
                    <path d="M10.911061,1.25094146 C5.48645122,1.25094146 1.07330488,5.6643561 1.07330488,11.0889659 C1.07330488,16.5135756 5.48645122,20.926722 10.911061,20.926722 C16.3356707,20.926722 20.7490854,16.5135756 20.7490854,11.0889659 C20.7490854,5.6643561 16.3356707,1.25094146 10.911061,1.25094146 M10.911061,21.9998927 C4.89459756,21.9998927 0.000134146341,17.1054293 0.000134146341,11.0889659 C0.000134146341,5.07250244 4.89459756,0.177770732 10.911061,0.177770732 C16.9275244,0.177770732 21.8222561,5.07250244 21.8222561,11.0889659 C21.8222561,17.1054293 16.9275244,21.9998927 10.911061,21.9998927" id="Fill-24"></path>
                </g>
                <path d="M8.85524146,14.2060171 C8.85524146,13.0158707 9.82002195,12.0513585 11.0099,12.0513585 C12.2000463,12.0513585 13.1645585,13.0158707 13.1645585,14.2060171 C13.1645585,15.3961634 12.2000463,16.3606756 11.0099,16.3606756 C9.82002195,16.3606756 8.85524146,15.3961634 8.85524146,14.2060171" id="Fill-27" fill="#FFFFFF"></path>
                <path d="M11.0099537,12.5878902 C10.1176122,12.5878902 9.39188049,13.3138902 9.39188049,14.2059634 C9.39188049,15.0983049 10.1176122,15.8243049 11.0099537,15.8243049 C11.9022951,15.8243049 12.6280268,15.0983049 12.6280268,14.2059634 C12.6280268,13.3138902 11.9022951,12.5878902 11.0099537,12.5878902 M11.0099537,16.8972073 C9.52602683,16.8972073 8.31870976,15.6901585 8.31870976,14.2059634 C8.31870976,12.7220366 9.52602683,11.5147195 11.0099537,11.5147195 C12.4938805,11.5147195 13.7011976,12.7220366 13.7011976,14.2059634 C13.7011976,15.6901585 12.4938805,16.8972073 11.0099537,16.8972073" id="Fill-29" stroke="#B2B7BB" stroke-width="0.4" fill="#B1B6BB"></path>
                <g id="Group-33" transform="translate(0.000000, 0.090522)" fill="#B1B6BB">
                    <path d="M10.911061,1.25094146 C5.48645122,1.25094146 1.07330488,5.6643561 1.07330488,11.0889659 C1.07330488,16.5135756 5.48645122,20.926722 10.911061,20.926722 C16.3356707,20.926722 20.7490854,16.5135756 20.7490854,11.0889659 C20.7490854,5.6643561 16.3356707,1.25094146 10.911061,1.25094146 M10.911061,21.9998927 C4.89459756,21.9998927 0.000134146341,17.1054293 0.000134146341,11.0889659 C0.000134146341,5.07250244 4.89459756,0.177770732 10.911061,0.177770732 C16.9275244,0.177770732 21.8222561,5.07250244 21.8222561,11.0889659 C21.8222561,17.1054293 16.9275244,21.9998927 10.911061,21.9998927" id="Fill-31"></path>
                </g>
                <g id="Group-36" transform="translate(0.000000, 0.090522)" stroke="#B2B7BB" stroke-width="0.4" fill="#B1B6BB">
                    <path d="M10.911061,1.25094146 C5.48645122,1.25094146 1.07330488,5.6643561 1.07330488,11.0889659 C1.07330488,16.5135756 5.48645122,20.926722 10.911061,20.926722 C16.3356707,20.926722 20.7490854,16.5135756 20.7490854,11.0889659 C20.7490854,5.6643561 16.3356707,1.25094146 10.911061,1.25094146 M10.911061,21.9998927 C4.89459756,21.9998927 0.000134146341,17.1054293 0.000134146341,11.0889659 C0.000134146341,5.07250244 4.89459756,0.177770732 10.911061,0.177770732 C16.9275244,0.177770732 21.8222561,5.07250244 21.8222561,11.0889659 C21.8222561,17.1054293 16.9275244,21.9998927 10.911061,21.9998927" id="Fill-34"></path>
                </g>
            </g>
        </g>
    </g>
</svg>