<?xml version="1.0" encoding="UTF-8"?>
<svg width="24px" height="24px" viewBox="0 0 24 24" version="1.1" xmlns="http://www.w3.org/2000/svg" xmlns:xlink="http://www.w3.org/1999/xlink">
    <!-- Generator: Sketch 47.1 (45422) - http://www.bohemiancoding.com/sketch -->
    <title>•a/icon/handicap</title>
    <desc>Created with Sketch.</desc>
    <defs></defs>
    <g id="Symbols" stroke="none" stroke-width="1" fill="none" fill-rule="evenodd">
        <g id="•a/icon/handicap" fill="#B1B6BB">
            <path d="M11.9269471,8.52338281 C13.0738884,8.52338281 14.1599586,8.53272622 15.2457823,8.51934242 C15.7623249,8.5130293 16.153182,8.66580669 16.2066599,9.24913853 C16.2500337,9.72565246 15.8626268,10.018076 15.2236025,10.0216113 C14.2013609,10.0269143 13.1791192,10.0228739 12.1640244,10.0228739 C12.0723479,11.0036795 12.0977314,11.0357501 12.9307056,11.0362552 C14.2035788,11.0372653 15.4766985,11.0511541 16.7490789,11.0306996 C17.2712896,11.0223663 17.6414456,11.2084769 17.9440764,11.6476172 C19.1745616,13.4347339 20.4262408,15.206699 21.6648586,16.9880076 C22.1550319,17.6930563 22.1027862,18.3420445 21.5391732,18.7602253 C20.9491909,19.1981029 20.3308678,19.0314367 19.8209791,18.2996204 C18.8670019,16.930432 17.8979918,15.5715971 16.9657014,14.1870047 C16.680568,13.7632684 16.3742405,13.5859961 15.8584373,13.5966021 C14.1345751,13.6322081 12.4094806,13.615289 10.6851256,13.6077132 C9.49505685,13.6026627 8.85627903,13.0003915 8.72689695,11.8031724 C8.57089912,10.3612569 8.39124286,8.92186664 8.25052445,7.47818347 C8.13124649,6.25268156 8.72048946,5.40041101 9.74002026,5.25445179 C10.7524042,5.10925014 11.5390473,5.79864232 11.7288077,7.00975032 C11.8034796,7.48550668 11.8547396,7.96530343 11.9269471,8.52338281" id="Fill-1"></path>
            <path d="M7.60077332,8.50806667 C7.66394349,8.95847843 7.68876912,9.29775294 7.76324601,9.62504706 C7.85664937,10.0354392 7.69319349,10.2775961 7.40265987,10.5439686 C4.69789517,13.0221255 4.92230903,17.3623412 7.85296239,19.5420078 C11.2137628,22.0415765 15.9785632,19.9121255 16.5411956,15.6588314 C16.568725,15.4513412 16.5952712,15.2435961 16.6240296,15.0208118 C17.736267,15.7842431 18.0113153,16.7419098 17.4740002,17.9001843 C16.1206347,20.8195765 13.3030485,22.4751647 10.2718637,22.1318118 C7.28664307,21.7935569 4.82595609,19.4925569 4.16475861,16.4204784 C3.54583845,13.5456941 4.70502332,10.4993608 7.05608424,8.83026275 C7.20258004,8.72626275 7.36505273,8.64647843 7.60077332,8.50806667" id="Fill-3" stroke="#B2B7BB" stroke-width="0.4"></path>
            <path d="M10.3695912,1.25409118 C11.41915,1.26017941 12.2971794,2.14853235 12.2945324,3.20232647 C12.2924147,4.26300294 11.4194147,5.12859118 10.3547676,5.12647353 C9.28879706,5.12462059 8.42929706,4.25638529 8.43512059,3.18697353 C8.44067941,2.12259118 9.31579706,1.24800294 10.3695912,1.25409118" id="Fill-6"></path>
        </g>
    </g>
</svg>