<?xml version="1.0" encoding="UTF-8"?>
<svg width="24px" height="24px" viewBox="0 0 24 24" version="1.1" xmlns="http://www.w3.org/2000/svg" xmlns:xlink="http://www.w3.org/1999/xlink">
    <!-- Generator: Sketch 47.1 (45422) - http://www.bohemiancoding.com/sketch -->
    <title>•a/icon/key</title>
    <desc>Created with Sketch.</desc>
    <defs></defs>
    <g id="Symbols" stroke="none" stroke-width="1" fill="none" fill-rule="evenodd">
        <g id="•a/icon/key" stroke="#B2B7BB" stroke-width="0.4" fill="#B1B6BB">
            <g id="Page-1" transform="translate(2.000000, 2.000000)">
                <path d="M4.93964518,13.2662922 C4.73424267,13.8575377 4.88365873,14.5161808 5.32869751,14.9612196 C5.77373629,15.406615 6.43344923,15.556031 7.02362486,15.3506285 L4.93964518,13.2662922 Z M6.48729607,16.8676117 C5.68922172,16.8676117 4.90576803,16.5555853 4.32022823,15.9700455 C3.45903539,15.1092092 3.18944459,13.8197379 3.63377017,12.6853882 C3.80529553,12.2485513 4.18186681,11.9304627 4.64081305,11.8348935 C5.09904609,11.7396808 5.57047339,11.8801819 5.90211286,12.2114647 L8.07880895,14.3881608 C8.41044843,14.7198003 8.55094945,15.1919408 8.45466702,15.650887 C8.3587412,16.1098333 8.04065258,16.4856914 7.60381564,16.6565035 C7.24115182,16.798431 6.86279754,16.8676117 6.48729607,16.8676117 L6.48729607,16.8676117 Z M6.5176072,8.39154854 C3.71043951,8.39154854 1.42640635,10.6752251 1.42640635,13.4823928 C1.42640635,16.2895605 3.71043951,18.5735937 6.5176072,18.5735937 C9.3247749,18.5735937 11.6084515,16.2895605 11.6084515,13.4823928 C11.6084515,12.9011322 11.505037,12.3191584 11.3003477,11.7535883 L11.1462958,11.3274494 L11.6084515,10.8652938 L11.6084515,8.12588036 L13.9302844,8.12588036 L13.9302844,5.80404743 L16.2517607,5.80404743 L16.2517607,3.4825711 L18.5735937,3.4825711 L18.5735937,1.42640635 L16.0998484,1.42640635 L8.67219399,8.8537042 L8.24605509,8.69965231 C7.68084158,8.494963 7.09922439,8.39154854 6.5176072,8.39154854 L6.5176072,8.39154854 Z M6.5176072,20 C2.92377641,20 0,17.0762236 0,13.4823928 C0,9.888562 2.92377641,6.96514219 6.5176072,6.96514219 C7.11455826,6.96514219 7.70972631,7.04930017 8.2927699,7.21618971 L15.5089596,0 L20,0 L20,4.90897744 L17.6781671,4.90897744 L17.6781671,7.23045378 L15.3566907,7.23045378 L15.3566907,9.55228671 L13.0348578,9.55228671 L13.0348578,11.4561826 L12.7838103,11.7072301 C12.9506998,12.2902737 13.0348578,12.8857983 13.0348578,13.4823928 C13.0348578,17.0762236 10.1110814,20 6.5176072,20 L6.5176072,20 Z" id="Fill-1"></path>
            </g>
        </g>
    </g>
</svg>