<?xml version="1.0" encoding="UTF-8"?>
<svg width="24px" height="24px" viewBox="0 0 24 24" version="1.1" xmlns="http://www.w3.org/2000/svg" xmlns:xlink="http://www.w3.org/1999/xlink">
    <!-- Generator: Sketch 47.1 (45422) - http://www.bohemiancoding.com/sketch -->
    <title>•a/icon/map-marker</title>
    <desc>Created with Sketch.</desc>
    <defs></defs>
    <g id="Symbols" stroke="none" stroke-width="1" fill="none" fill-rule="evenodd">
        <g id="•a/icon/map-marker">
            <g id="map-marker" transform="translate(4.000000, 2.000000)">
                <path d="M13.1545872,12.7442383 L12.9445447,12.9733447 C12.9057362,13.0284936 12.8488851,13.0805787 12.7947574,13.1350468 L12.7957787,13.1360681 L7.9515234,18.2390468 L3.10522553,13.134366 L3.10658723,13.1336851 C3.05245957,13.0805787 2.99731064,13.028834 2.95918298,12.9753872 L2.78420426,12.7442383 L2.74709787,12.7442383 C1.68088511,11.4993021 1.09671489,9.92755745 1.09671489,8.29147234 C1.09671489,4.51206809 4.1714383,1.43700426 7.95118298,1.43700426 C11.7305872,1.43700426 14.8056511,4.51206809 14.8056511,8.29147234 C14.8056511,9.9268766 14.2211404,11.4993021 13.1545872,12.7442383 M7.95118298,0.340493617 C12.335183,0.340493617 15.9021617,3.90747234 15.9021617,8.29147234 C15.9021617,10.2809191 15.1579915,12.1890043 13.8058213,13.6630468 L13.8037787,13.6657702 L13.8048,13.6667915 L7.9515234,19.8315574 L2.09756596,13.6667915 L2.09858723,13.6657702 L2.09620426,13.6630468 C0.744374468,12.1890043 -0.000136170212,10.2816 -0.000136170212,8.29147234 C-0.000136170212,3.90747234 3.56684255,0.340493617 7.95118298,0.340493617 Z M7.95111489,4.59843404 C5.91639149,4.59843404 4.26124255,6.25358298 4.26124255,8.28830638 C4.26124255,10.3226894 5.91639149,11.9781787 7.95111489,11.9781787 C9.9858383,11.9781787 11.6409872,10.3226894 11.6409872,8.28830638 C11.6409872,6.25358298 9.9858383,4.59843404 7.95111489,4.59843404 Z" id="Combined-Shape" stroke="#91989E" stroke-width="0.5" fill="#91989E" opacity="0.699999988"></path>
                <path d="M7.95111489,5.70481702 C9.37579574,5.70481702 10.5346043,6.86362553 10.5346043,8.28830638 C10.5346043,9.71264681 9.37579574,10.8717957 7.95111489,10.8717957 C6.52643404,10.8717957 5.36762553,9.71264681 5.36762553,8.28830638 C5.36762553,6.86362553 6.52643404,5.70481702 7.95111489,5.70481702" id="Fill-4" fill="#FFFFFF"></path>
            </g>
        </g>
    </g>
</svg>