<?xml version="1.0" encoding="UTF-8"?>
<svg width="24px" height="24px" viewBox="0 0 24 24" version="1.1" xmlns="http://www.w3.org/2000/svg" xmlns:xlink="http://www.w3.org/1999/xlink">
    <!-- Generator: Sketch 47.1 (45422) - http://www.bohemiancoding.com/sketch -->
    <title>•a/icon/stalls</title>
    <desc>Created with Sketch.</desc>
    <defs></defs>
    <g id="Symbols" stroke="none" stroke-width="1" fill="none" fill-rule="evenodd">
        <g id="•a/icon/stalls">
            <g id="Group-3" transform="translate(0.000000, 1.000000)">
                <g id="Page-1">
                    <path d="M11.8132057,13.5909091 L7.00464163,13.5909091 L6.00673246,13.5909091 L5.92109225,14.5129263 L5.32930501,20.8587384 L5.22727273,21.9545455 L6.41285439,21.9545455 L12.4049929,21.9545455 L13.5909091,21.9545455 L13.4885423,20.8587384 L12.8964205,14.5129263 L12.8107803,13.5909091 L11.8132057,13.5909091 Z M7.00464163,14.5998212 L11.8132057,14.5998212 L12.4049929,20.9456333 L6.41285439,20.9456333 L7.00464163,14.5998212 Z" id="Fill-2" stroke="#B2B7BB" stroke-width="0.3" fill="#B1B6BB"></path>
                    <path d="M8.36363636,12.5454545 L9.83317902,4.18181818 L13.5909091,4.18181818 L13.0103242,10.3434146 C12.8941403,11.5780554 11.42962,12.5454545 9.67614655,12.5454545 L8.36363636,12.5454545 Z" id="Fill-3" fill="#FFFFFF"></path>
                    <path d="M13.5909091,3.13636364 L13.2542807,3.13636364 L10.0508415,3.13636364 L9.7786007,3.13636364 L9.74140593,3.38466029 L8.41270846,12.2183244 L8.36363636,12.5454545 L8.72245657,12.5454545 L9.76828619,12.5454545 C11.4864348,12.5454545 12.9220282,11.4320037 13.0367382,10.0106996 L13.5659042,3.44536781 L13.5909091,3.13636364 Z M13.2542807,3.42407702 L12.7248021,9.98940881 C12.6219695,11.2657054 11.328904,12.2577412 9.76828619,12.2577412 L8.72245657,12.2577412 L10.0508415,3.42407702 L13.2542807,3.42407702 L13.2542807,3.42407702 Z" id="Fill-5" fill="#B1B6BB"></path>
                    <path d="M5.29784483,12.5454545 C3.38518605,12.5454545 1.78455062,11.4016281 1.6541219,9.94188243 L1.04545455,3.13636364 L14.6363636,3.13636364 L14.027992,9.94188243 C13.8975633,11.4016281 12.2969279,12.5454545 10.3842691,12.5454545 L5.29784483,12.5454545 Z" id="Fill-7" fill="#FFFFFF"></path>
                    <path d="M15.6818182,3.13636364 L14.6012595,3.13636364 L2.12571824,3.13636364 L1.04545455,3.13636364 L1.13542735,4.15526368 L1.69738867,10.5272283 C1.85137492,12.2737944 3.62693669,13.5909091 5.82699313,13.5909091 L10.9002796,13.5909091 C13.100631,13.5909091 14.8758978,12.2737944 15.0298841,10.5272283 L15.5918454,4.15526368 L15.6818182,3.13636364 Z M14.6012595,4.07708006 L14.0395932,10.4487655 C13.9304458,11.6876965 12.5572543,12.6501927 10.9002796,12.6501927 L5.82699313,12.6501927 C4.17001847,12.6501927 2.7971219,11.6876965 2.68797455,10.4487655 L2.12571824,4.07708006 L14.6012595,4.07708006 L14.6012595,4.07708006 Z" id="Fill-9" stroke="#B2B7BB" stroke-width="0.3" fill="#B1B6BB"></path>
                    <path d="M16.3028485,6.27272727 L15.0607879,6.27272727 C14.8263906,6.27272727 14.6363636,6.08622131 14.6363636,5.85616725 L14.6363636,5.64383275 C14.6363636,5.41377869 14.8263906,5.22727273 15.0607879,5.22727273 L16.3028485,5.22727273 C16.5372457,5.22727273 16.7272727,5.41377869 16.7272727,5.64383275 L16.7272727,5.85616725 C16.7272727,6.08622131 16.5372457,6.27272727 16.3028485,6.27272727" id="Fill-11" stroke="#B2B7BB" stroke-width="0.3" fill="#B1B6BB"></path>
                    <path d="M1.78300604,5.22727273 C1.37620029,5.22727273 1.04545455,4.85127592 1.04545455,4.38881294 L1.04545455,3.97482342 C1.04545455,3.51268797 1.37620029,3.13636364 1.78300604,3.13636364 L14.9442667,3.13636364 C15.3510724,3.13636364 15.6818182,3.51268797 15.6818182,3.97482342 L15.6818182,4.38881294 C15.6818182,4.85127592 15.3510724,5.22727273 14.9442667,5.22727273 L1.78300604,5.22727273 Z" id="Fill-18" fill="#FFFFFF"></path>
                    <path d="M14.4529671,2.09090909 L1.22885103,2.09090909 C0.551173703,2.09090909 0,2.70319622 0,3.45601353 L0,3.86216828 C0,4.6149856 0.551173703,5.22727273 1.22885103,5.22727273 L14.4529671,5.22727273 C15.130355,5.22727273 15.6818182,4.6149856 15.6818182,3.86216828 L15.6818182,3.45601353 C15.6818182,2.70319622 15.130355,2.09090909 14.4529671,2.09090909 M14.4529671,3.17431 C14.5927869,3.17431 14.7062639,3.30036912 14.7062639,3.45601353 L14.7062639,3.86216828 C14.7062639,4.0178127 14.5927869,4.14387182 14.4529671,4.14387182 L1.22885103,4.14387182 C1.08874175,4.14387182 0.975264813,4.0178127 0.975264813,3.86216828 L0.975264813,3.45601353 C0.975264813,3.30036912 1.08874175,3.17431 1.22885103,3.17431 L14.4529671,3.17431" id="Fill-20" stroke="#B2B7BB" stroke-width="0.3" fill="#B1B6BB"></path>
                    <path d="M8.36363636,0 C5.94049796,0 4.18181818,2.43029597 4.18181818,5.77884763 C4.18181818,7.2991745 4.70338959,8.85446034 5.6503202,10.1583005 L5.86542162,10.4545455 L6.19655011,10.4545455 L10.4803048,10.4545455 L10.8063695,10.4545455 L11.0210306,10.1658102 C12.0040683,8.84410212 12.5454545,7.28596777 12.5454545,5.77884763 C12.5454545,2.43029597 10.7867748,0 8.36363636,0" id="Fill-25" stroke="#B2B7BB" stroke-width="1.75" fill="#FFFFFF"></path>
                    <path d="M15.1669498,11.5 L1.56032294,11.5 C1.27602233,11.5 1.04545455,11.2072294 1.04545455,10.8462299 L1.04545455,10.062861 C1.04545455,9.7018615 1.27602233,9.40909091 1.56032294,9.40909091 L15.1669498,9.40909091 C15.4512504,9.40909091 15.6818182,9.7018615 15.6818182,10.062861 L15.6818182,10.8462299 C15.6818182,11.2072294 15.4512504,11.5 15.1669498,11.5" id="Fill-27" fill="#B1B6BB"></path>
                    <path d="M8.36208938,16.7272727 C7.60335122,16.7272727 6.32577706,16.0445008 5.24931136,15.0664587 C4.46034744,14.3497403 3.13636364,12.8743508 3.13636364,11.0479678 L3.13636364,10.4545455 L13.5909091,10.4545455 L13.5909091,11.0479678 C13.5909091,14.1828903 10.4350534,16.7272727 8.37565527,16.7272727 L8.36208938,16.7272727 Z" id="Fill-14" stroke="#B2B7BB" stroke-width="1.75" fill="#FFFFFF"></path>
                </g>
                <g id="Group-2" transform="translate(10.454545, 9.409091)" stroke-width="1.75" stroke="#B2B7BB">
                    <g id="map-marker" fill="#FFFFFF">
                        <path d="M6.27272727,0 C9.73186071,0 12.5454545,2.81359384 12.5454545,6.27272727 C12.5454545,9.73103415 9.73186071,12.5454545 6.27272727,12.5454545 C2.81359384,12.5454545 0,9.73103415 0,6.27272727 C0,2.81359384 2.81359384,0 6.27272727,0" id="Fill-4"></path>
                    </g>
                    <g id="Group" transform="translate(2.787879, 2.787879)">
                        <path d="M6.96969697,3.48484848 L0,3.48484848" id="Path-3"></path>
                        <path d="M3.48484848,0 L3.48484848,6.96969697" id="Path-3"></path>
                    </g>
                </g>
            </g>
        </g>
    </g>
</svg>