<?xml version="1.0" encoding="utf-8"?>
<!-- Generator: Adobe Illustrator 21.0.2, SVG Export Plug-In . SVG Version: 6.00 Build 0)  -->
<svg version="1.1" id="Layer_1" xmlns="http://www.w3.org/2000/svg" xmlns:xlink="http://www.w3.org/1999/xlink" x="0px" y="0px"
	 viewBox="0 0 142.9 210.8" style="enable-background:new 0 0 142.9 210.8;" xml:space="preserve">
<style type="text/css">
	.st0{fill:#0378F0;}
	.st1{fill:#198CF4;}
	.st2{fill:#4EB0F9;}
</style>
<g>
	<path class="st0" d="M94.1,120H41.2c-17.3,0-31.6-11.7-32.7-26.7L3.6,28.9c-0.5-7,4.5-13,10.9-13h106.4c6.4,0,11.4,6,10.9,13
		l-4.9,64.4C125.7,108.3,111.4,120,94.1,120z"/>
	<path class="st1" d="M124,11.8H11.3c-6.8,0-12.1,6.4-11.5,13.8l0.3,4.3c0.1,1.7,1.5,2.9,3.2,2.9h128.8c1.7,0,3-1.3,3.2-2.9l0.3-4.3
		C136.1,18.2,130.8,11.8,124,11.8z"/>
	<path class="st2" d="M97.8,110.6c10.3-12.4,18.8-29.5,18.8-48.3c0-38.1-21.7-62.2-48.4-62.2c-26.7,0-48.4,24.1-48.4,62.2
		c0,18.8,8.1,35.9,18.1,48.3H97.8z"/>
	<path class="st1" d="M89.8,102.2c7.5-9.8,13.8-23.3,13.8-38.1c0-30.1-15.9-49.1-35.4-49.1c-19.6,0-35.4,19-35.4,49.1
		c0,14.9,5.9,28.3,13.3,38.1l8.2,8.4h28.9L89.8,102.2z"/>
	<path class="st0" d="M131.5,121.7H3.8c-2.2,0-4.1-1.8-4.1-4.1v-3c0-2.2,1.8-4.1,4.1-4.1h127.7c2.2,0,4.1,1.8,4.1,4.1v3
		C135.6,119.9,133.8,121.7,131.5,121.7z"/>
	<path class="st2" d="M138.9,47.9h-12.2c-2,0-3.7-1.7-3.7-3.7v-1.2c0-2,1.7-3.7,3.7-3.7h12.2c2,0,3.7,1.7,3.7,3.7v1.2
		C142.6,46.2,141,47.9,138.9,47.9z"/>
	<g>
		<path class="st0" d="M104.3,196.8c-0.7-2.2-2-4.2-3.8-5.8c-4.6-4.1-7.2-9.9-7.7-16l-3-34.3H45.6l-3,34.3c-0.5,6.1-3.1,11.9-7.7,16
			c-1.8,1.6-3.1,3.6-3.8,5.8l-2.5,14h78.1L104.3,196.8z"/>
	</g>
	<path class="st1" d="M67.7,171.6L67.7,171.6C51.5,171.7,5.3,148,5.3,122.2v-0.5h124.8v0.5C130.1,148,93.2,171.7,67.7,171.6z"/>
	<path class="st0" d="M5.3,122.2c0,1.1,0.1,2.2,0.3,3.4h124.3c0.1-1.1,0.2-2.2,0.2-3.4v-0.5H5.3V122.2z"/>
</g>
</svg>
